PathFileType	4	(X/Y/Z)	/Users/itak/Documents/Research/Walk-IL/dataset/trc/00342_00011.trc
DataRate	CameraRate	NumFrames	NumMarkers	Units	OrigDataRate	OrigDataStartFrame	OrigNumFrames
100.000000	100.000000	4	55	mm	100.000000	466	746
Frame#	Time	RPSI			LPSI			L3			STRN			T10			C7			CLAV			RBAK			LBAK			LSHO			LUPA			LAEL			LAOL			LWTS			LWPS			LFRA			LIFD			LHPS			LHTS			RSHO			RUPA			RAEL			RAOL			RWTS			RWPS			RFRA			RIFD			RHTS			RHPS			RBHD			LFHD			RFHD			LBHD			LHIP			RHIP			RASI			LASI			LKNE			LTHI			LANK			LTIP			LTOE			LMT1			LMT5			LHEE			RKNE			RTHI			RTIP			RTOE			RMT1			RMT5			RHEE			RANK			*53			*54			
		X1	Y1	Z1	X2	Y2	Z2	X3	Y3	Z3	X4	Y4	Z4	X5	Y5	Z5	X6	Y6	Z6	X7	Y7	Z7	X8	Y8	Z8	X9	Y9	Z9	X10	Y10	Z10	X11	Y11	Z11	X12	Y12	Z12	X13	Y13	Z13	X14	Y14	Z14	X15	Y15	Z15	X16	Y16	Z16	X17	Y17	Z17	X18	Y18	Z18	X19	Y19	Z19	X20	Y20	Z20	X21	Y21	Z21	X22	Y22	Z22	X23	Y23	Z23	X24	Y24	Z24	X25	Y25	Z25	X26	Y26	Z26	X27	Y27	Z27	X28	Y28	Z28	X29	Y29	Z29	X30	Y30	Z30	X31	Y31	Z31	X32	Y32	Z32	X33	Y33	Z33	X34	Y34	Z34	X35	Y35	Z35	X36	Y36	Z36	X37	Y37	Z37	X38	Y38	Z38	X39	Y39	Z39	X40	Y40	Z40	X41	Y41	Z41	X42	Y42	Z42	X43	Y43	Z43	X44	Y44	Z44	X45	Y45	Z45	X46	Y46	Z46	X47	Y47	Z47	X48	Y48	Z48	X49	Y49	Z49	X50	Y50	Z50	X51	Y51	Z51	X52	Y52	Z52	X53	Y53	Z53	X54	Y54	Z54	X55	Y55	Z55	

467	4.66	-292.9379577636719	939.2926635742188	-400.2142944335938	-194.4044342041016	940.6343994140625	-316.1172790527344	-230.0939483642578	1002.680725097656	-360.0750732421875	-374.6744079589844	1184.900024414062	-174.2873382568359	-203.0158843994141	1116.5712890625	-344.6417541503906	-211.4947204589844	1363.212524414062	-294.0708618164062	-333.8311767578125	1310.007934570312	-196.2375793457031	-224.8024444580078	1229.529541015625	-380.6650695800781	-135.8663330078125	1319.577026367188	-228.8259124755859	-160.8507537841797	1334.673950195312	-129.8367767333984	-117.4672775268555	1209.272705078125	-87.97384643554688	-164.0913543701172	1013.634582519531	-42.96795272827148	-140.3771514892578	983.1581420898438	-119.666145324707	-381.6937255859375	891.1636352539062	-4.300483226776123	-340.5883483886719	851.4672241210938	34.31676483154297	-220.2799377441406	934.5282592773438	-15.9030122756958	-490.2486877441406	773.4935302734375	20.82247543334961	-386.2592163085938	797.2861938476562	39.58835220336914	-434.064208984375	837.9036254882812	27.74596786499023	-360.5697326660156	1360.003295898438	-379.235107421875	-386.5834655761719	1302.220336914062	-441.9690551757812	-375.0496826171875	1043.243041992188	-512.3233032226562	-296.9761962890625	1039.714111328125	-457.5530395507812	-401.3310241699219	790.2670288085938	-478.6094665527344	-409.0133361816406	796.8517456054688	-554.8196411132812	-391.4648132324219	975.1561889648438	-523.4935913085938	-369.3934020996094	627.172607421875	-527.1354370117188	-406.7812805175781	686.8551635742188	-504.8731994628906	-399.1205749511719	711.3250122070312	-569.6010131835938	-308.3328552246094	1577.986083984375	-307.2268676757812	-328.4476928710938	1574.012817382812	-99.16280364990234	-398.4621887207031	1582.400756835938	-172.2355041503906	-190.7272491455078	1562.372192382812	-224.8259429931641	-168.4092712402344	879.27490234375	-184.9295959472656	-431.4508361816406	894.0540771484375	-402.9161682128906	-459.4942321777344	926.561767578125	-295.1191711425781	-289.6838684082031	904.2470703125	-124.99951171875	-209.7129058837891	427.9109802246094	-240.6095428466797	-203.7600250244141	564.5797729492188	-208.0701904296875	-62.09954071044922	65.53742980957031	-427.5883483886719	-136.1461181640625	229.0483245849609	-327.5229797363281	-268.7130126953125	36.18062973022461	-406.1687622070312	-218.144775390625	27.59869766235352	-467.953369140625	-169.1324310302734	45.036376953125	-366.9206237792969	-57.46523284912109	80.97259521484375	-502.175537109375	-566.0759887695312	464.4471740722656	-260.9639892578125	-530.2315673828125	714.1471557617188	-320.5731506347656	-598.2730712890625	357.1421203613281	-228.9199066162109	-702.3897094726562	94.07480621337891	-29.9753589630127	-637.9937744140625	76.44846343994141	-47.73188781738281	-710.8863525390625	53.4818229675293	-137.6060943603516	-571.3432006835938	40.52889633178711	-224.4527893066406	-639.0777587890625	48.04618072509766	-212.2034301757812	nan	nan	nan	nan	nan	nan	
468	4.67	-302.2909240722656	939.7666015625	-394.3058166503906	-203.2850799560547	940.68310546875	-310.8623962402344	-238.9928894042969	1002.197509765625	-354.6858520507812	-382.0740661621094	1185.170776367188	-168.3745269775391	-211.8152465820312	1116.359497070312	-340.2019958496094	-219.7349853515625	1363.15087890625	-289.8533325195312	-341.2232360839844	1310.277465820312	-190.7696838378906	-234.4614105224609	1229.214721679688	-375.9564819335938	-143.3843536376953	1319.469116210938	-225.4920654296875	-167.3933715820312	1334.373901367188	-126.1475524902344	-123.0717926025391	1208.899291992188	-85.41754150390625	-167.3198699951172	1012.447814941406	-41.65065765380859	-144.7026672363281	983.0087890625	-119.0782623291016	-382.5834655761719	886.732421875	-0.4255073368549347	-340.2012939453125	847.2601928710938	36.91034317016602	-222.0242462158203	932.2734985351562	-14.44333076477051	-489.1875305175781	767.5551147460938	25.45717811584473	-384.5575561523438	792.7647094726562	43.23567962646484	-433.6860656738281	832.5440673828125	32.00661087036133	-369.7071228027344	1360.145629882812	-373.5427856445312	-396.5814208984375	1302.170776367188	-435.876220703125	-386.7742309570312	1042.822509765625	-505.4429321289062	-307.2176818847656	1039.926025390625	-451.9242248535156	-413.4234008789062	789.975341796875	-471.5155334472656	-421.8150024414062	796.8110961914062	-547.6666259765625	-403.553466796875	974.8969116210938	-516.3968505859375	-382.3855590820312	626.9853515625	-521.1658325195312	-419.351806640625	686.6369018554688	-498.1394958496094	-412.3681945800781	711.3684692382812	-562.8985595703125	-316.2366943359375	1578.163818359375	-302.03857421875	-334.1500244140625	1574.314208984375	-93.74022674560547	-404.8666076660156	1582.854370117188	-166.0777587890625	-197.7535095214844	1562.271362304688	-220.8579711914062	-176.4665832519531	878.931640625	-179.9982147216797	-440.9443054199219	894.827880859375	-396.2091979980469	-468.2924194335938	927.4180908203125	-288.2381591796875	-297.4770202636719	903.8201904296875	-119.1533279418945	-216.3291015625	427.8893737792969	-236.2852935791016	-210.7068328857422	564.3739624023438	-203.5264282226562	-63.4463996887207	69.32489013671875	-427.4482727050781	-139.53466796875	231.1591796875	-325.3047485351562	-268.61572265625	36.30722808837891	-406.0531921386719	-218.7586364746094	28.4379711151123	-467.7774658203125	-169.3687286376953	45.05249404907227	-366.6170959472656	-59.73797225952148	86.44857025146484	-501.6580200195312	-573.7766723632812	465.3589782714844	-252.1368560791016	-539.0337524414062	714.9051513671875	-312.5425109863281	-604.2952880859375	356.6378784179688	-220.6014862060547	-701.298583984375	87.01822662353516	-25.95660972595215	-636.8871459960938	70.61701202392578	-44.98107528686523	-710.4915771484375	49.51498031616211	-134.6745758056641	-572.4385375976562	41.00197219848633	-223.7296600341797	-640.0599365234375	47.25543212890625	-210.6139373779297	nan	nan	nan	nan	nan	nan	
469	4.68	-311.7598571777344	940.5609741210938	-388.13818359375	-212.1891937255859	940.8994750976562	-305.4093933105469	-247.9901733398438	1001.905517578125	-349.0580139160156	-389.42138671875	1185.720703125	-162.3504943847656	-220.6729888916016	1116.3232421875	-335.6539306640625	-227.9698791503906	1363.3251953125	-285.6069641113281	-348.56982421875	1310.807006835938	-185.2485656738281	-244.1969146728516	1229.1083984375	-371.1691284179688	-150.8729400634766	1319.613037109375	-222.1540222167969	-173.8995208740234	1334.359619140625	-122.4481201171875	-128.6564788818359	1208.823120117188	-82.86512756347656	-170.5290832519531	1011.588256835938	-40.44086074829102	-149.1084899902344	983.2318115234375	-118.5987167358398	-383.0774841308594	882.0866088867188	3.382696390151978	-339.3030090332031	842.9032592773438	39.2943229675293	-223.6018676757812	930.28955078125	-13.04122257232666	-487.3236389160156	761.1131591796875	30.01345634460449	-382.4495849609375	787.7352294921875	46.21311569213867	-432.6856384277344	826.8239135742188	36.19077682495117	-378.8533325195312	1360.534301757812	-367.7591247558594	-406.6329956054688	1302.3720703125	-429.6551208496094	-398.6518249511719	1042.627075195312	-498.3187561035156	-317.6288146972656	1040.322875976562	-446.0479125976562	-425.8669738769531	789.9469604492188	-464.0023193359375	-434.9201965332031	796.9816284179688	-540.0906372070312	-415.8221740722656	974.8567504882812	-509.0167846679688	-395.8271484375	626.9849243164062	-514.6112670898438	-432.3437805175781	686.6656494140625	-490.8908996582031	-425.9812622070312	711.6035766601562	-555.6917114257812	-324.1180114746094	1578.60888671875	-296.765380859375	-339.8511352539062	1574.786865234375	-88.259765625	-411.2572937011719	1583.497314453125	-159.8524169921875	-204.7696838378906	1562.426391601562	-216.8068695068359	-184.5661468505859	878.7018432617188	-174.8913879394531	-450.5364990234375	896.0211791992188	-389.2756958007812	-477.094970703125	928.612060546875	-281.1055908203125	-305.2974243164062	903.6158447265625	-113.1227264404297	-223.4488220214844	427.880859375	-231.3888702392578	-218.0502166748047	564.2117309570312	-198.4754180908203	-65.18583679199219	73.66864776611328	-427.2659301757812	-143.2820281982422	233.6334075927734	-322.8029479980469	-268.5015258789062	36.46641159057617	-405.9395751953125	-219.5751342773438	29.5150260925293	-467.5757446289062	-169.6448516845703	45.01066970825195	-366.3373718261719	-62.63708114624023	92.63816833496094	-500.9769287109375	-581.3317260742188	466.3724670410156	-243.7107086181641	-547.7333374023438	715.794677734375	-304.4448547363281	-610.2399291992188	356.3761596679688	-212.7893218994141	-700.7396240234375	80.54798889160156	-22.70050621032715	-636.2806396484375	65.44967651367188	-42.77063751220703	-710.30615234375	45.9489631652832	-132.4374542236328	-573.5399169921875	41.76357650756836	-223.1690216064453	-641.064208984375	46.69007110595703	-209.3927459716797	nan	nan	nan	nan	nan	nan	
470	4.69	-321.3126220703125	941.6494750976562	-381.7328491210938	-221.0865631103516	941.2684936523438	-299.7855834960938	-257.080810546875	1001.818420410156	-343.2174987792969	-396.6817932128906	1186.53662109375	-156.2023468017578	-229.6103363037109	1116.456909179688	-330.99169921875	-236.1902008056641	1363.726928710938	-281.3363037109375	-355.843017578125	1311.574340820312	-179.6651153564453	-253.9613952636719	1229.2294921875	-366.3247985839844	-158.3353271484375	1320.000610351562	-218.8107147216797	-180.3487701416016	1334.636352539062	-118.7500228881836	-134.2002258300781	1209.050415039062	-80.32379150390625	-173.7251586914062	1011.077819824219	-39.34030151367188	-153.6182250976562	983.84130859375	-118.2274398803711	-383.1550598144531	877.2561645507812	7.108306407928467	-337.8868103027344	838.4168701171875	41.43709564208984	-225.0258178710938	928.5912475585938	-11.71866703033447	-484.6222229003906	754.2183227539062	34.46767807006836	-379.8797302246094	782.317626953125	48.59187698364258	-431.0296325683594	820.7859497070312	40.27807998657227	-388.0011901855469	1361.161865234375	-361.8720703125	-416.7326354980469	1302.82275390625	-423.293701171875	-410.6807861328125	1042.6689453125	-490.9631958007812	-328.3069152832031	1040.825073242188	-439.8904113769531	-438.6435241699219	790.1963500976562	-456.0610961914062	-448.3288269042969	797.3657836914062	-532.0831298828125	-428.2659606933594	975.042724609375	-501.35986328125	-409.7164306640625	627.1780395507812	-507.4288940429688	-445.7373352050781	686.951171875	-483.096435546875	-439.9549560546875	712.0274658203125	-547.9554443359375	-331.9660949707031	1579.30859375	-291.4128723144531	-345.5321350097656	1575.418334960938	-82.72455596923828	-417.6202392578125	1584.313354492188	-153.5618743896484	-211.7642059326172	1562.830078125	-212.6833801269531	-192.6606903076172	878.5906372070312	-169.6356964111328	-460.1912841796875	897.618408203125	-382.126953125	-485.8642578125	930.1181640625	-273.7310485839844	-313.0824584960938	903.6475830078125	-106.9433135986328	-231.0587463378906	427.8641357421875	-225.8264617919922	-225.7763214111328	564.0796508789062	-192.8654174804688	-67.4105224609375	78.60090637207031	-427.0399169921875	-147.432861328125	236.4662170410156	-319.9691467285156	-268.3897094726562	36.6378288269043	-405.8177490234375	-220.6632537841797	30.86444854736328	-467.3282775878906	-169.9771118164062	44.93217086791992	-366.0993041992188	-66.30010223388672	99.56454467773438	-500.1054992675781	-588.78369140625	467.4510498046875	-235.7228546142578	-556.3395385742188	716.8548583984375	-296.2903442382812	-616.1119384765625	356.3054504394531	-205.5365295410156	-700.7333984375	74.76776885986328	-20.16519927978516	-636.2015380859375	61.03752899169922	-41.05418014526367	-710.3829345703125	42.82969284057617	-130.8420867919922	-574.65478515625	42.73213958740234	-222.7107849121094	-642.10693359375	46.30382537841797	-208.4776916503906	nan	nan	nan	nan	nan	nan	
